<mxfile host="app.diagrams.net" agent="Mozilla/5.0 (Macintosh; Intel Mac OS X 10_15_7) AppleWebKit/537.36 (KHTML, like Gecko) Chrome/127.0.0.0 Safari/537.36" version="24.7.6">
  <diagram name="Page-1" id="riRK8lQEftlOolROxeSt">
    <mxGraphModel dx="954" dy="640" grid="1" gridSize="10" guides="1" tooltips="1" connect="1" arrows="1" fold="1" page="1" pageScale="1" pageWidth="827" pageHeight="1169" math="0" shadow="0">
      <root>
        <mxCell id="0" />
        <mxCell id="1" parent="0" />
        <mxCell id="WRuBbxS_YZ6HckWnEiv1-1" value="Stack" style="swimlane;fontStyle=1;align=center;verticalAlign=top;childLayout=stackLayout;horizontal=1;startSize=26;horizontalStack=0;resizeParent=1;resizeParentMax=0;resizeLast=0;collapsible=1;marginBottom=0;whiteSpace=wrap;html=1;" parent="1" vertex="1">
          <mxGeometry x="100" y="80" width="420" height="502" as="geometry">
            <mxRectangle x="100" y="80" width="70" height="30" as="alternateBounds" />
          </mxGeometry>
        </mxCell>
        <mxCell id="WRuBbxS_YZ6HckWnEiv1-10" value="&lt;meta charset=&quot;utf-8&quot;&gt;- elem_num: size_t" style="text;strokeColor=none;fillColor=none;align=left;verticalAlign=top;spacingLeft=4;spacingRight=4;overflow=hidden;rotatable=0;points=[[0,0.5],[1,0.5]];portConstraint=eastwest;whiteSpace=wrap;html=1;" parent="WRuBbxS_YZ6HckWnEiv1-1" vertex="1">
          <mxGeometry y="26" width="420" height="26" as="geometry" />
        </mxCell>
        <mxCell id="WRuBbxS_YZ6HckWnEiv1-9" value="&lt;meta charset=&quot;utf-8&quot;&gt;- elem_size: size_t" style="text;strokeColor=none;fillColor=none;align=left;verticalAlign=top;spacingLeft=4;spacingRight=4;overflow=hidden;rotatable=0;points=[[0,0.5],[1,0.5]];portConstraint=eastwest;whiteSpace=wrap;html=1;" parent="WRuBbxS_YZ6HckWnEiv1-1" vertex="1">
          <mxGeometry y="52" width="420" height="26" as="geometry" />
        </mxCell>
        <mxCell id="WRuBbxS_YZ6HckWnEiv1-8" value="&lt;meta charset=&quot;utf-8&quot;&gt;- chunk_elem_max: size_t" style="text;strokeColor=none;fillColor=none;align=left;verticalAlign=top;spacingLeft=4;spacingRight=4;overflow=hidden;rotatable=0;points=[[0,0.5],[1,0.5]];portConstraint=eastwest;whiteSpace=wrap;html=1;" parent="WRuBbxS_YZ6HckWnEiv1-1" vertex="1">
          <mxGeometry y="78" width="420" height="26" as="geometry" />
        </mxCell>
        <mxCell id="WRuBbxS_YZ6HckWnEiv1-7" value="&lt;meta charset=&quot;utf-8&quot;&gt;- chunk_index: size_t" style="text;strokeColor=none;fillColor=none;align=left;verticalAlign=top;spacingLeft=4;spacingRight=4;overflow=hidden;rotatable=0;points=[[0,0.5],[1,0.5]];portConstraint=eastwest;whiteSpace=wrap;html=1;" parent="WRuBbxS_YZ6HckWnEiv1-1" vertex="1">
          <mxGeometry y="104" width="420" height="26" as="geometry" />
        </mxCell>
        <mxCell id="WRuBbxS_YZ6HckWnEiv1-6" value="&lt;meta charset=&quot;utf-8&quot;&gt;- chunk_free: StackChunk*" style="text;strokeColor=none;fillColor=none;align=left;verticalAlign=top;spacingLeft=4;spacingRight=4;overflow=hidden;rotatable=0;points=[[0,0.5],[1,0.5]];portConstraint=eastwest;whiteSpace=wrap;html=1;" parent="WRuBbxS_YZ6HckWnEiv1-1" vertex="1">
          <mxGeometry y="130" width="420" height="26" as="geometry" />
        </mxCell>
        <mxCell id="WRuBbxS_YZ6HckWnEiv1-2" value="- chunk_curr: StackChunk*" style="text;strokeColor=none;fillColor=none;align=left;verticalAlign=top;spacingLeft=4;spacingRight=4;overflow=hidden;rotatable=0;points=[[0,0.5],[1,0.5]];portConstraint=eastwest;whiteSpace=wrap;html=1;" parent="WRuBbxS_YZ6HckWnEiv1-1" vertex="1">
          <mxGeometry y="156" width="420" height="26" as="geometry" />
        </mxCell>
        <mxCell id="WRuBbxS_YZ6HckWnEiv1-3" value="" style="line;strokeWidth=1;fillColor=none;align=left;verticalAlign=middle;spacingTop=-1;spacingLeft=3;spacingRight=3;rotatable=0;labelPosition=right;points=[];portConstraint=eastwest;strokeColor=inherit;" parent="WRuBbxS_YZ6HckWnEiv1-1" vertex="1">
          <mxGeometry y="182" width="420" height="8" as="geometry" />
        </mxCell>
        <mxCell id="WRuBbxS_YZ6HckWnEiv1-11" value="&lt;meta charset=&quot;utf-8&quot;&gt;+ Stack(elem_size: size_t, description: const char*, chunk_size: size_t)" style="text;strokeColor=none;fillColor=none;align=left;verticalAlign=top;spacingLeft=4;spacingRight=4;overflow=hidden;rotatable=0;points=[[0,0.5],[1,0.5]];portConstraint=eastwest;whiteSpace=wrap;html=1;" parent="WRuBbxS_YZ6HckWnEiv1-1" vertex="1">
          <mxGeometry y="190" width="420" height="26" as="geometry" />
        </mxCell>
        <mxCell id="WRuBbxS_YZ6HckWnEiv1-12" value="&lt;meta charset=&quot;utf-8&quot;&gt;+ ~Stack() " style="text;strokeColor=none;fillColor=none;align=left;verticalAlign=top;spacingLeft=4;spacingRight=4;overflow=hidden;rotatable=0;points=[[0,0.5],[1,0.5]];portConstraint=eastwest;whiteSpace=wrap;html=1;" parent="WRuBbxS_YZ6HckWnEiv1-1" vertex="1">
          <mxGeometry y="216" width="420" height="26" as="geometry" />
        </mxCell>
        <mxCell id="WRuBbxS_YZ6HckWnEiv1-13" value="&lt;meta charset=&quot;utf-8&quot;&gt;+ void* push_raw() " style="text;strokeColor=none;fillColor=none;align=left;verticalAlign=top;spacingLeft=4;spacingRight=4;overflow=hidden;rotatable=0;points=[[0,0.5],[1,0.5]];portConstraint=eastwest;whiteSpace=wrap;html=1;" parent="WRuBbxS_YZ6HckWnEiv1-1" vertex="1">
          <mxGeometry y="242" width="420" height="26" as="geometry" />
        </mxCell>
        <mxCell id="WRuBbxS_YZ6HckWnEiv1-14" value="&lt;meta charset=&quot;utf-8&quot;&gt;+ void push(src: const void*)" style="text;strokeColor=none;fillColor=none;align=left;verticalAlign=top;spacingLeft=4;spacingRight=4;overflow=hidden;rotatable=0;points=[[0,0.5],[1,0.5]];portConstraint=eastwest;whiteSpace=wrap;html=1;" parent="WRuBbxS_YZ6HckWnEiv1-1" vertex="1">
          <mxGeometry y="268" width="420" height="26" as="geometry" />
        </mxCell>
        <mxCell id="WRuBbxS_YZ6HckWnEiv1-15" value="&lt;meta charset=&quot;utf-8&quot;&gt;+ void pop(dst: void*)" style="text;strokeColor=none;fillColor=none;align=left;verticalAlign=top;spacingLeft=4;spacingRight=4;overflow=hidden;rotatable=0;points=[[0,0.5],[1,0.5]];portConstraint=eastwest;whiteSpace=wrap;html=1;" parent="WRuBbxS_YZ6HckWnEiv1-1" vertex="1">
          <mxGeometry y="294" width="420" height="26" as="geometry" />
        </mxCell>
        <mxCell id="WRuBbxS_YZ6HckWnEiv1-16" value="&lt;meta charset=&quot;utf-8&quot;&gt;+ void pop_n(dst: void*, n: unsigned int)" style="text;strokeColor=none;fillColor=none;align=left;verticalAlign=top;spacingLeft=4;spacingRight=4;overflow=hidden;rotatable=0;points=[[0,0.5],[1,0.5]];portConstraint=eastwest;whiteSpace=wrap;html=1;" parent="WRuBbxS_YZ6HckWnEiv1-1" vertex="1">
          <mxGeometry y="320" width="420" height="26" as="geometry" />
        </mxCell>
        <mxCell id="WRuBbxS_YZ6HckWnEiv1-17" value="&lt;meta charset=&quot;utf-8&quot;&gt;+ void pop_n_reverse(dst: void*, n: unsigned int)" style="text;strokeColor=none;fillColor=none;align=left;verticalAlign=top;spacingLeft=4;spacingRight=4;overflow=hidden;rotatable=0;points=[[0,0.5],[1,0.5]];portConstraint=eastwest;whiteSpace=wrap;html=1;" parent="WRuBbxS_YZ6HckWnEiv1-1" vertex="1">
          <mxGeometry y="346" width="420" height="26" as="geometry" />
        </mxCell>
        <mxCell id="WRuBbxS_YZ6HckWnEiv1-18" value="&lt;meta charset=&quot;utf-8&quot;&gt;+ void* peek()" style="text;strokeColor=none;fillColor=none;align=left;verticalAlign=top;spacingLeft=4;spacingRight=4;overflow=hidden;rotatable=0;points=[[0,0.5],[1,0.5]];portConstraint=eastwest;whiteSpace=wrap;html=1;" parent="WRuBbxS_YZ6HckWnEiv1-1" vertex="1">
          <mxGeometry y="372" width="420" height="26" as="geometry" />
        </mxCell>
        <mxCell id="WRuBbxS_YZ6HckWnEiv1-19" value="&lt;meta charset=&quot;utf-8&quot;&gt;+ void discard()" style="text;strokeColor=none;fillColor=none;align=left;verticalAlign=top;spacingLeft=4;spacingRight=4;overflow=hidden;rotatable=0;points=[[0,0.5],[1,0.5]];portConstraint=eastwest;whiteSpace=wrap;html=1;" parent="WRuBbxS_YZ6HckWnEiv1-1" vertex="1">
          <mxGeometry y="398" width="420" height="26" as="geometry" />
        </mxCell>
        <mxCell id="WRuBbxS_YZ6HckWnEiv1-20" value="&lt;meta charset=&quot;utf-8&quot;&gt;+ void clear()" style="text;strokeColor=none;fillColor=none;align=left;verticalAlign=top;spacingLeft=4;spacingRight=4;overflow=hidden;rotatable=0;points=[[0,0.5],[1,0.5]];portConstraint=eastwest;whiteSpace=wrap;html=1;" parent="WRuBbxS_YZ6HckWnEiv1-1" vertex="1">
          <mxGeometry y="424" width="420" height="26" as="geometry" />
        </mxCell>
        <mxCell id="WRuBbxS_YZ6HckWnEiv1-21" value="&lt;meta charset=&quot;utf-8&quot;&gt;+ size_t count() const" style="text;strokeColor=none;fillColor=none;align=left;verticalAlign=top;spacingLeft=4;spacingRight=4;overflow=hidden;rotatable=0;points=[[0,0.5],[1,0.5]];portConstraint=eastwest;whiteSpace=wrap;html=1;" parent="WRuBbxS_YZ6HckWnEiv1-1" vertex="1">
          <mxGeometry y="450" width="420" height="26" as="geometry" />
        </mxCell>
        <mxCell id="WRuBbxS_YZ6HckWnEiv1-22" value="&lt;meta charset=&quot;utf-8&quot;&gt;+ bool is_empty() const" style="text;strokeColor=none;fillColor=none;align=left;verticalAlign=top;spacingLeft=4;spacingRight=4;overflow=hidden;rotatable=0;points=[[0,0.5],[1,0.5]];portConstraint=eastwest;whiteSpace=wrap;html=1;" parent="WRuBbxS_YZ6HckWnEiv1-1" vertex="1">
          <mxGeometry y="476" width="420" height="26" as="geometry" />
        </mxCell>
        <mxCell id="WRuBbxS_YZ6HckWnEiv1-23" value="StackChunk" style="swimlane;fontStyle=1;align=center;verticalAlign=top;childLayout=stackLayout;horizontal=1;startSize=26;horizontalStack=0;resizeParent=1;resizeParentMax=0;resizeLast=0;collapsible=1;marginBottom=0;whiteSpace=wrap;html=1;" parent="1" vertex="1">
          <mxGeometry x="217" y="720" width="160" height="78" as="geometry" />
        </mxCell>
        <mxCell id="WRuBbxS_YZ6HckWnEiv1-24" value="&lt;meta charset=&quot;utf-8&quot;&gt;- next: StackChunk*" style="text;strokeColor=none;fillColor=none;align=left;verticalAlign=top;spacingLeft=4;spacingRight=4;overflow=hidden;rotatable=0;points=[[0,0.5],[1,0.5]];portConstraint=eastwest;whiteSpace=wrap;html=1;" parent="WRuBbxS_YZ6HckWnEiv1-23" vertex="1">
          <mxGeometry y="26" width="160" height="26" as="geometry" />
        </mxCell>
        <mxCell id="WRuBbxS_YZ6HckWnEiv1-27" value="&lt;meta charset=&quot;utf-8&quot;&gt;- data: char[1] " style="text;strokeColor=none;fillColor=none;align=left;verticalAlign=top;spacingLeft=4;spacingRight=4;overflow=hidden;rotatable=0;points=[[0,0.5],[1,0.5]];portConstraint=eastwest;whiteSpace=wrap;html=1;" parent="WRuBbxS_YZ6HckWnEiv1-23" vertex="1">
          <mxGeometry y="52" width="160" height="26" as="geometry" />
        </mxCell>
        <mxCell id="WRuBbxS_YZ6HckWnEiv1-31" style="edgeStyle=orthogonalEdgeStyle;rounded=0;orthogonalLoop=1;jettySize=auto;html=1;entryX=0.471;entryY=1.038;entryDx=0;entryDy=0;entryPerimeter=0;" parent="1" source="WRuBbxS_YZ6HckWnEiv1-23" target="WRuBbxS_YZ6HckWnEiv1-22" edge="1">
          <mxGeometry relative="1" as="geometry" />
        </mxCell>
      </root>
    </mxGraphModel>
  </diagram>
</mxfile>
